<svg width="150" height="48" viewBox="0 0 150 48" fill="none" xmlns="http://www.w3.org/2000/svg">
<path fill-rule="evenodd" clip-rule="evenodd" d="M0 23.75C0 10.6332 10.6332 0 23.75 0H126.25C139.367 0 150 10.6332 150 23.75C150 36.8668 139.367 47.5 126.25 47.5H23.75C10.6332 47.5 0 36.8668 0 23.75ZM86.336 29.417C86.336 30.3921 86.0058 31.1855 85.3429 31.798C84.6145 32.4673 83.6004 32.8015 82.2973 32.8015C81.0942 32.8015 80.1297 32.5638 79.3996 32.0874L79.8146 30.5567C80.601 31.0442 81.4639 31.2889 82.404 31.2889C83.0787 31.2889 83.6038 31.1321 83.981 30.8202C84.3566 30.5084 84.5439 30.0898 84.5439 29.5677C84.5439 29.1026 84.3893 28.7106 84.0793 28.3928C83.771 28.0749 83.256 27.7794 82.5368 27.5063C80.5792 26.7578 79.6012 25.6612 79.6012 24.2191C79.6012 23.2767 79.944 22.504 80.6304 21.9028C81.3143 21.3006 82.2267 21 83.3677 21C84.3851 21 85.2303 21.1818 85.905 21.5444L85.4572 23.0416C84.8271 22.6901 84.1146 22.5144 83.3173 22.5144C82.6872 22.5144 82.1948 22.6737 81.8419 22.9908C81.5437 23.2742 81.3941 23.6196 81.3941 24.0288C81.3941 24.4819 81.5647 24.8566 81.9075 25.1512C82.2057 25.4234 82.7477 25.718 83.534 26.0359C84.496 26.433 85.2026 26.8973 85.6572 27.4297C86.11 27.9603 86.336 28.6245 86.336 29.417ZM57.4393 32.6318H55.5313L54.4861 29.2645H50.8532L49.8576 32.6318H48L51.5993 21.168H53.8224L57.4393 32.6318ZM54.171 27.8518L53.2258 24.8583C53.1259 24.5525 52.9385 23.8324 52.6621 22.6987H52.6285C52.5184 23.1863 52.3411 23.9064 52.0975 24.8583L51.1691 27.8518H54.171ZM66.6954 28.3971C66.6954 29.8029 66.3249 30.9141 65.5839 31.7299C64.9201 32.4561 64.0959 32.8188 63.1121 32.8188C62.0501 32.8188 61.2873 32.4277 60.8226 31.6455H60.789V36H58.9978V27.0868C58.9978 26.203 58.9751 25.2959 58.9314 24.3656H60.5067L60.6067 25.6758H60.6403C61.2377 24.6886 62.1442 24.1959 63.3608 24.1959C64.3119 24.1959 65.1058 24.5809 65.741 25.3519C66.3778 26.1238 66.6954 27.1385 66.6954 28.3971ZM64.3396 26.4744C64.6941 26.9964 64.8706 27.6597 64.8706 28.4643C64.8706 29.3377 64.6824 30.0407 64.306 30.5739C63.9304 31.1062 63.4053 31.3733 62.7307 31.3733C62.156 31.3733 61.6889 31.1665 61.3293 30.7522C60.9697 30.3379 60.7899 29.8305 60.7899 29.2292V27.8509C60.7899 27.7045 60.8176 27.5184 60.873 27.291C60.9831 26.8034 61.2184 26.4098 61.5779 26.1083C61.9367 25.8093 62.3383 25.6577 62.7802 25.6577C63.4322 25.6577 63.9523 25.9299 64.3396 26.4744ZM75.9683 28.3971C75.9683 29.8029 75.5978 30.9141 74.856 31.7299C74.1931 32.4561 73.3689 32.8188 72.385 32.8188C71.3231 32.8188 70.5602 32.4277 70.0964 31.6455H70.0628V36H68.2716V27.0868C68.2716 26.203 68.2489 25.2959 68.2052 24.3656H69.7805L69.8805 25.6758H69.9141C70.5106 24.6886 71.4171 24.1959 72.6346 24.1959C73.5848 24.1959 74.3787 24.5809 75.0156 25.3519C75.6499 26.1238 75.9683 27.1385 75.9683 28.3971ZM73.6117 26.4744C73.9662 26.9964 74.1435 27.6597 74.1435 28.4643C74.1435 29.3377 73.9553 30.0407 73.5789 30.5739C73.2033 31.1062 72.6782 31.3733 72.0036 31.3733C71.4272 31.3733 70.9601 31.1657 70.6005 30.7522C70.2426 30.3379 70.0628 29.8305 70.0628 29.2292V27.8509C70.0628 27.7045 70.0914 27.5184 70.146 27.291C70.256 26.8034 70.4904 26.4098 70.85 26.1083C71.2096 25.8093 71.6104 25.6577 72.0532 25.6577C72.706 25.6577 73.2243 25.9299 73.6117 26.4744ZM90.284 25.7439H92.2583V24.3639H90.284V22.3059L88.5246 22.8503V24.3639H87.3484V25.7421H88.5246V29.9089C88.5246 30.952 88.7246 31.6946 89.122 32.1374C89.5211 32.5793 90.0739 32.8007 90.7813 32.8007C91.3568 32.8007 91.8215 32.7326 92.1743 32.5974L92.1248 31.2027C91.9147 31.2596 91.6492 31.288 91.3291 31.288C90.6318 31.288 90.284 30.778 90.284 29.7572V25.7439ZM101.167 28.4307C101.167 29.7013 100.812 30.7444 100.105 31.5602C99.3628 32.4001 98.3781 32.8188 97.1506 32.8188C95.9677 32.8188 95.0259 32.4165 94.3235 31.6119C93.6211 30.8073 93.2699 29.7917 93.2699 28.5676C93.2699 27.2867 93.6312 26.2375 94.3562 25.4217C95.0796 24.6051 96.0559 24.1967 97.2834 24.1967C98.4663 24.1967 99.4183 24.599 100.137 25.4045C100.824 26.1858 101.167 27.1945 101.167 28.4307ZM98.8276 26.5286C99.1494 27.0739 99.3082 27.7277 99.3082 28.4901C99.3082 29.2516 99.1418 29.9123 98.8117 30.4679C98.4243 31.1381 97.8875 31.4741 97.2036 31.4741C96.5054 31.4741 95.9643 31.145 95.577 30.4852C95.2552 29.9407 95.0964 29.2869 95.0964 28.5246C95.0964 27.7389 95.2552 27.0748 95.577 26.5286C95.9526 25.8696 96.4995 25.5397 97.2195 25.5397C97.9152 25.5397 98.4521 25.8688 98.8276 26.5286ZM106.989 25.9808C106.812 25.9472 106.623 25.9299 106.424 25.9299C105.794 25.9299 105.307 26.1737 104.964 26.6621C104.666 27.0929 104.516 27.6373 104.516 28.2945V32.6318H102.726L102.743 26.9688C102.743 26.0161 102.72 25.1486 102.676 24.3665H104.236L104.301 25.948H104.351C104.54 25.4045 104.838 24.9669 105.246 24.6387C105.646 24.3432 106.077 24.1959 106.541 24.1959C106.707 24.1959 106.856 24.2079 106.989 24.2295V25.9808ZM114.934 28.9406C114.979 28.7141 115 28.4367 115 28.1076C115 27.0765 114.762 26.2082 114.289 25.5061C113.692 24.6223 112.812 24.1804 111.65 24.1804C110.467 24.1804 109.527 24.6223 108.831 25.5061C108.167 26.3339 107.835 27.372 107.835 28.6184C107.835 29.8882 108.192 30.9004 108.905 31.6541C109.619 32.4079 110.6 32.7852 111.85 32.7852C112.89 32.7852 113.79 32.6155 114.553 32.2743L114.272 30.9994C113.62 31.2604 112.894 31.3905 112.098 31.3905C111.379 31.3905 110.793 31.1976 110.34 30.8125C109.841 30.3818 109.582 29.7573 109.561 28.9406H114.934ZM113.292 27.6313C113.304 27.0868 113.187 26.6165 112.944 26.2194C112.634 25.7086 112.158 25.4536 111.517 25.4536C110.931 25.4536 110.455 25.7025 110.091 26.2021C109.793 26.5993 109.615 27.0756 109.561 27.6304H113.292V27.6313ZM71.1037 12H71.9815V17.9081H71.1037V12ZM52.6184 17.25C53.2095 16.7388 53.5054 15.9777 53.5054 14.9665C53.5054 14.0662 53.2313 13.3746 52.6847 12.8909C52.1967 12.4631 51.4732 12.2491 50.5133 12.2491C49.97 12.2491 49.467 12.2887 49 12.366V17.8909C49.358 17.9356 49.7856 17.9579 50.2852 17.9579C51.293 17.9579 52.071 17.7216 52.6184 17.25ZM52.071 13.4828C52.4097 13.8333 52.579 14.3359 52.579 14.9914C52.579 15.7251 52.3946 16.2835 52.029 16.6667C51.6635 17.0498 51.1446 17.2414 50.4722 17.2414C50.1846 17.2414 49.9868 17.2337 49.8786 17.2165V13.0163C50.074 12.9768 50.3095 12.9579 50.5862 12.9579C51.2376 12.9579 51.7323 13.1332 52.071 13.4828ZM58.4175 15.8497C58.4175 16.4725 58.2439 16.9828 57.8968 17.3832C57.533 17.7947 57.0509 18 56.449 18C55.8688 18 55.4069 17.8033 55.0623 17.4081C54.7186 17.0137 54.5467 16.5163 54.5467 15.9167C54.5467 15.2895 54.7236 14.7749 55.0791 14.3754C55.4345 13.9759 55.9124 13.7758 56.5144 13.7758C57.0945 13.7758 57.5606 13.9725 57.9136 14.3668C58.2489 14.75 58.4175 15.2448 58.4175 15.8497ZM57.2706 14.9175C57.4273 15.1847 57.5061 15.5052 57.5061 15.8789C57.5061 16.2526 57.4248 16.5756 57.2622 16.8479C57.0727 17.177 56.8095 17.3411 56.4741 17.3411C56.132 17.3411 55.8671 17.1796 55.6768 16.8565C55.52 16.5893 55.4412 16.2689 55.4412 15.8952C55.4412 15.5103 55.5192 15.1847 55.6768 14.9175C55.8613 14.5945 56.1295 14.433 56.4825 14.433C56.8237 14.433 57.0861 14.5945 57.2706 14.9175ZM65.0037 13.8582L65.0035 13.8591H64.141L63.6615 15.7509C63.5424 16.2234 63.4527 16.6675 63.3932 17.0842H63.3689C63.2876 16.6564 63.1819 16.2122 63.052 15.7509L62.5146 13.8591H61.7986L61.2378 15.7921C61.0852 16.3136 60.977 16.7448 60.9116 17.0833H60.8957C60.8244 16.6727 60.7356 16.2388 60.6274 15.7835L60.1806 13.8582H59.2776L60.4405 17.9081H61.2545L61.7986 16.1495C61.9344 15.7216 62.0401 15.2861 62.1164 14.8411H62.1323C62.2145 15.2741 62.3201 15.7105 62.45 16.1495L62.9623 17.9081H63.7671L65.0035 13.8591H65.0037V13.8582ZM68.68 17.9081H69.5586V15.482C69.5586 14.8875 69.4069 14.4399 69.1034 14.14C68.8594 13.8952 68.5526 13.7732 68.1837 13.7732C67.8919 13.7732 67.6253 13.8497 67.3872 14.0009C67.1869 14.1306 67.0343 14.293 66.932 14.4897H66.9077L66.8666 13.8565H66.0945C66.1154 14.2741 66.1263 14.6598 66.1263 15.0155V17.9072H67.0049V15.5052C67.0049 15.2397 67.0871 15.0077 67.2489 14.811C67.4124 14.6143 67.6228 14.5163 67.8835 14.5163C68.4151 14.5163 68.68 14.8737 68.68 15.5885V17.9081ZM76.6337 17.3832C76.9807 16.9828 77.1543 16.4725 77.1543 15.8497C77.1543 15.2448 76.9858 14.75 76.6504 14.3668C76.2966 13.9725 75.8313 13.7758 75.2503 13.7758C74.6492 13.7758 74.1713 13.9759 73.8159 14.3754C73.4604 14.7749 73.2835 15.2895 73.2835 15.9167C73.2835 16.5163 73.4554 17.0137 73.7991 17.4081C74.1428 17.8033 74.6048 18 75.1858 18C75.7869 18 76.2698 17.7947 76.6337 17.3832ZM76.2421 15.8789C76.2421 15.5052 76.1633 15.1847 76.0066 14.9175C75.823 14.5945 75.5597 14.433 75.2193 14.433C74.8655 14.433 74.5972 14.5945 74.4136 14.9175C74.256 15.1847 74.1781 15.5103 74.1781 15.8952C74.1781 16.2689 74.2569 16.5893 74.4136 16.8565C74.604 17.1796 74.8689 17.3411 75.2109 17.3411C75.5463 17.3411 75.8087 17.177 75.9982 16.8479C76.1617 16.5756 76.2421 16.2526 76.2421 15.8789ZM80.6176 17.9081H81.4065C81.3688 17.6692 81.3495 17.3471 81.3495 16.9424V15.451C81.3495 14.3342 80.8314 13.7758 79.7985 13.7758C79.2636 13.7758 78.8101 13.8926 78.4429 14.1254L78.6214 14.7165C78.9182 14.5172 79.262 14.4167 79.6518 14.4167C80.1993 14.4167 80.4726 14.683 80.4726 15.2165V15.2921C79.7407 15.2861 79.1723 15.4141 78.7682 15.6753C78.3632 15.9364 78.162 16.3136 78.162 16.8084C78.162 17.1357 78.2651 17.4115 78.4714 17.6332C78.6986 17.8771 79.0004 18 79.3735 18C79.8731 18 80.2579 17.8136 80.5279 17.4416H80.5522L80.6176 17.9081ZM80.4944 16.5163V15.8918C79.5252 15.8746 79.0406 16.1469 79.0406 16.7079C79.0406 16.9192 79.096 17.0773 79.2091 17.183C79.3223 17.2887 79.4665 17.3411 79.6384 17.3411C79.8312 17.3411 80.0115 17.2784 80.1758 17.1538C80.3409 17.0284 80.4424 16.8694 80.4801 16.6744C80.4893 16.6306 80.4944 16.5773 80.4944 16.5163ZM85.6194 17.9081H86.399C86.3781 17.5747 86.368 17.2113 86.368 16.817V12H85.4886V14.3247H85.4718C85.2605 13.9579 84.8891 13.7749 84.3584 13.7749C83.8755 13.7749 83.4698 13.9639 83.1386 14.3419C82.7965 14.7474 82.6264 15.2784 82.6264 15.9338C82.6264 16.5447 82.7831 17.0421 83.0975 17.4253C83.4119 17.8084 83.8085 18 84.2847 18C84.8807 18 85.305 17.7526 85.554 17.2577H85.5783L85.6194 17.9081ZM85.4886 16.2002V15.5249C85.4886 15.4081 85.4802 15.3136 85.4642 15.2414C85.4148 15.0249 85.3083 14.8428 85.1465 14.6959C84.983 14.549 84.786 14.4751 84.5588 14.4751C84.231 14.4751 83.9745 14.6082 83.7858 14.8754C83.5989 15.1426 83.5041 15.4837 83.5041 15.9003C83.5041 16.3007 83.5938 16.6254 83.7741 16.8754C83.9644 17.1418 84.2209 17.2749 84.542 17.2749C84.8304 17.2749 85.061 17.1641 85.2362 16.9416C85.4056 16.7363 85.4886 16.4888 85.4886 16.2002ZM93.3928 17.3832C93.7398 16.9828 93.9134 16.4725 93.9134 15.8497C93.9134 15.2448 93.7449 14.75 93.4095 14.3668C93.0574 13.9725 92.5904 13.7758 92.0111 13.7758C91.4083 13.7758 90.9305 13.9759 90.575 14.3754C90.2195 14.7749 90.0426 15.2895 90.0426 15.9167C90.0426 16.5163 90.2145 17.0137 90.5582 17.4081C90.9036 17.8033 91.3656 18 91.9449 18C92.5477 18 93.0289 17.7947 93.3928 17.3832ZM93.0029 15.8789C93.0029 15.5052 92.9241 15.1847 92.7673 14.9175C92.582 14.5945 92.3205 14.433 91.9784 14.433C91.6263 14.433 91.358 14.5945 91.1727 14.9175C91.0151 15.1847 90.9372 15.5103 90.9372 15.8952C90.9372 16.2689 91.016 16.5893 91.1727 16.8565C91.3631 17.1796 91.628 17.3411 91.97 17.3411C92.3054 17.3411 92.5695 17.177 92.7589 16.8479C92.9208 16.5756 93.0029 16.2526 93.0029 15.8789ZM97.7598 17.9081H98.6376V15.482C98.6376 14.8875 98.4867 14.4399 98.1824 14.14C97.9384 13.8952 97.6316 13.7732 97.2635 13.7732C96.9709 13.7732 96.7052 13.8497 96.4662 14.0009C96.2667 14.1306 96.1141 14.293 96.011 14.4897H95.9867L95.9456 13.8565H95.1743C95.1953 14.2741 95.2053 14.6598 95.2053 15.0155V17.9072H96.0848V15.5052C96.0848 15.2397 96.1661 15.0077 96.3288 14.811C96.4914 14.6143 96.7018 14.5163 96.9626 14.5163C97.4949 14.5163 97.7598 14.8737 97.7598 15.5885V17.9081ZM104.55 14.5326H103.583V16.5C103.583 17 103.755 17.25 104.095 17.25C104.253 17.25 104.384 17.2363 104.487 17.2079L104.51 17.8909C104.336 17.9579 104.108 17.9914 103.827 17.9914C103.48 17.9914 103.21 17.8832 103.015 17.6667C102.819 17.4502 102.721 17.0859 102.721 16.5747V14.5326H102.144V13.8582H102.721V13.116L103.582 12.8497V13.8574H104.55V14.5326ZM108.323 17.9081H109.202V15.5C109.202 14.9003 109.053 14.4467 108.755 14.1418C108.516 13.8969 108.215 13.7749 107.851 13.7749C107.337 13.7749 106.941 13.9966 106.664 14.4407H106.647V12H105.77V17.9072H106.647V15.4716C106.647 15.3445 106.663 15.2363 106.689 15.1478C106.841 14.7268 107.119 14.5163 107.527 14.5163C108.058 14.5163 108.323 14.8797 108.323 15.6057V17.9081ZM114 15.6916C114 15.8531 113.988 15.9888 113.967 16.0997H111.332C111.344 16.5 111.47 16.805 111.714 17.0163C111.937 17.2053 112.224 17.2998 112.576 17.2998C112.966 17.2998 113.322 17.2363 113.642 17.1082L113.78 17.7337C113.405 17.9003 112.964 17.9837 112.453 17.9837C111.841 17.9837 111.359 17.799 111.01 17.4296C110.66 17.0601 110.486 16.5644 110.486 15.9424C110.486 15.3316 110.648 14.823 110.974 14.4175C111.315 13.9845 111.775 13.768 112.356 13.768C112.924 13.768 113.356 13.9845 113.648 14.4175C113.883 14.7612 114 15.1864 114 15.6916ZM112.991 14.7672C113.11 14.9613 113.168 15.1916 113.162 15.4588H111.332C111.361 15.1864 111.447 14.9536 111.593 14.7586C111.772 14.5137 112.006 14.3918 112.292 14.3918C112.607 14.3918 112.839 14.5172 112.991 14.7672ZM34.259 15.5262C35.017 14.5836 35.5356 13.3013 35.3916 12C34.2946 12.0483 32.9227 12.7546 32.1326 13.6764C31.4336 14.4888 30.8093 15.8202 30.9706 17.0724C32.2029 17.1638 33.4681 16.4541 34.259 15.5262ZM37.0341 23.6996C37.0092 20.941 39.2882 19.5883 39.4258 19.5067L39.4285 19.5051C38.1181 17.6053 36.0871 17.3457 35.3734 17.325C34.3298 17.2158 33.3054 17.6201 32.4683 17.9505C31.9371 18.1602 31.4813 18.34 31.144 18.34C30.7599 18.34 30.291 18.1527 29.7656 17.9427L29.7656 17.9427C29.0785 17.6682 28.2946 17.355 27.4774 17.3716C25.6216 17.4001 23.8854 18.4685 22.9332 20.1277C20.9681 23.5107 22.4337 28.4822 24.3164 31.2167C25.2582 32.5559 26.3587 34.0513 27.7992 33.9986C28.4526 33.9719 28.9162 33.7778 29.3951 33.5774C29.949 33.3456 30.5233 33.1053 31.4354 33.1053C32.2957 33.1053 32.8456 33.3381 33.3733 33.5616C33.8792 33.7759 34.3647 33.9815 35.0838 33.965C36.5962 33.9409 37.5484 32.6197 38.4572 31.2684C39.5456 29.7334 39.9827 28.2217 40 28.1441C39.9644 28.1321 37.0627 27.0308 37.0341 23.6996Z" fill="white"/>
</svg>
