<svg width="24" height="17" viewBox="0 0 24 17" fill="none" xmlns="http://www.w3.org/2000/svg">
<path fill-rule="evenodd" clip-rule="evenodd" d="M0 12C0 14.4785 2.02148 16.5 4.5 16.5H19.5C21.9785 16.5 24 14.4785 24 12C24 10.6523 23.4023 9.39844 22.3711 8.54297C22.459 8.19727 22.5 7.8457 22.5 7.5C22.5 4.76953 20.0859 2.54297 17.2383 3.07617C16.1836 1.18945 14.1973 0 12 0C9.25195 0 6.86133 1.91016 6.20508 4.54102C4.58203 4.77539 3.29883 6.05859 3.05273 7.74023C1.25391 8.34961 0 10.0605 0 12ZM6.67383 5.99414L6.78516 5.25586L6.82617 6.00586H7.47656L7.57031 5.36133C7.88086 3.1582 9.78516 1.5 12 1.5C13.8105 1.5 15.4395 2.57812 16.1426 4.24805L16.4121 4.88086L17.0684 4.66406C17.4082 4.55273 17.7129 4.5 18 4.5C19.6523 4.5 21 5.84766 21 7.5C21 7.85156 20.9297 8.20898 20.7949 8.56641L20.5723 9.14062L21.0938 9.46875C21.9727 10.0254 22.5 10.9688 22.5 12C22.5 13.6523 21.1523 15 19.5 15H4.5C2.84766 15 1.5 13.6523 1.5 12C1.5 10.5762 2.51367 9.33984 3.90234 9.05859L4.51758 8.88281L4.5 8.25C4.5 7.00781 5.50781 6 6.67383 5.99414Z" fill="black"/>
</svg>
