<svg width="150" height="48" viewBox="0 0 150 48" fill="none" xmlns="http://www.w3.org/2000/svg">
<path fill-rule="evenodd" clip-rule="evenodd" d="M23.75 0C10.6332 0 0 10.6332 0 23.75C0 36.8668 10.6332 47.5 23.75 47.5H126.25C139.367 47.5 150 36.8668 150 23.75C150 10.6332 139.367 0 126.25 0H23.75Z" fill="white"/>
<path d="M26.7009 19.1359C26.3854 19.2354 26.1812 19.5575 26.1812 20.0449L26.1831 35.3829C26.1831 35.8649 26.381 36.1821 26.6878 36.288L35.1984 27.7051L26.7009 19.1359" stroke="black" stroke-width="0.8"/>
<path d="M26.688 36.288C26.9087 36.3635 27.1854 36.3282 27.4868 36.1615L37.8727 30.4016L35.1987 27.7051L26.688 36.288" stroke="black" stroke-width="0.8"/>
<path d="M37.8737 30.4016L41.4151 28.438C42.1332 28.0385 42.1332 27.3883 41.4151 26.9897L37.8606 25.0188L35.1982 27.7036L37.8737 30.4016" stroke="black" stroke-width="0.8"/>
<path d="M37.8601 25.0188L27.4864 19.2668C27.1922 19.1045 26.9209 19.0667 26.7012 19.1359L35.1982 27.7036L37.8601 25.0188" stroke="black" stroke-width="0.8"/>
<path fill-rule="evenodd" clip-rule="evenodd" d="M85.533 31.6422C84.9939 31.5917 84.8801 31.4917 84.8801 30.8489L84.884 21.4654C84.9491 20.8864 85.1013 20.7054 85.6099 20.4083H83.2635L82.0344 21.0055H83.3112L83.3175 30.8426V31.2118C83.3175 31.5105 83.2642 31.5796 82.9738 31.9568L82.9733 31.9574C82.9426 31.9973 82.9093 32.0406 82.8731 32.0879H85.7645L86.3712 31.7236C86.2314 31.7068 86.0909 31.6947 85.9498 31.6826C85.8113 31.6707 85.6723 31.6587 85.533 31.6422ZM56.4485 31.7275L54.249 32.2355C53.3578 32.3772 52.5575 32.5017 51.7101 32.5017C47.4676 32.5017 45.8511 29.3526 45.8511 26.8879C45.8511 23.8781 48.1415 21.0874 52.064 21.0874C52.894 21.0874 53.6923 21.2104 54.4196 21.4105C55.5194 21.722 56.0607 22.1027 56.4007 22.3418L56.4485 22.3753L55.1708 23.5991L54.6321 23.7207L55.0162 23.1034L55.0128 23.1001C54.4918 22.587 53.5357 21.6453 51.7247 21.6453C49.2981 21.6453 47.4676 23.5055 47.4676 26.2211C47.4676 29.1379 49.5578 31.8815 52.91 31.8815C53.895 31.8815 54.4021 31.6819 54.8625 31.4956V28.9952L52.54 29.1212L53.771 28.4544H57.0304L56.6317 28.8412C56.5243 28.9334 56.5097 28.9648 56.4796 29.0883C56.4635 29.2295 56.4485 29.6786 56.4485 29.8365V31.7275ZM61.4926 32.3017C58.8842 32.3017 57.4913 30.2537 57.4913 28.3995C57.4913 26.2329 59.246 24.3791 61.7401 24.3791C64.1506 24.3791 65.6597 26.2834 65.6597 28.2828C65.6597 30.2356 64.1686 32.3017 61.4926 32.3017ZM64.0368 29.1285C64.0368 29.7728 63.9386 30.4337 63.5448 30.9632C63.1661 31.4917 62.5122 31.805 61.8719 31.805C59.8868 31.805 59.0821 29.1089 59.0821 27.4743C59.0821 26.7605 59.1959 26.0329 59.8377 25.4538C60.2315 25.1057 60.7706 24.8925 61.3137 24.8925C63.3465 24.8925 64.0368 27.6714 64.0368 29.1285ZM70.224 32.3017C67.6161 32.3017 66.2208 30.2537 66.2208 28.3995C66.2208 26.2329 67.9749 24.3791 70.47 24.3791C72.882 24.3791 74.3926 26.2834 74.3926 28.2828C74.3926 30.2356 72.8995 32.3017 70.224 32.3017ZM72.7687 29.1285C72.7687 29.7728 72.6725 30.4337 72.2757 30.9632C71.898 31.4917 71.2431 31.805 70.6013 31.805C68.6128 31.805 67.8116 29.1089 67.8116 27.4743C67.8116 26.7605 67.9258 26.0329 68.5666 25.4538C68.9595 25.1057 69.5045 24.8925 70.0456 24.8925C72.0803 24.8925 72.7687 27.6714 72.7687 29.1285ZM80.396 25.1911C80.7728 25.5034 81.559 26.1662 81.559 27.4233C81.559 28.6485 80.8739 29.2261 80.1831 29.7728L80.1536 29.8026C79.9488 30.0098 79.7231 30.238 79.7231 30.5822C79.7231 30.9416 79.9618 31.1395 80.1394 31.2867L80.1495 31.2951L80.7422 31.7565C81.4627 32.3698 82.1195 32.9322 82.1195 34.0745C82.1195 35.6307 80.626 37.2001 77.8037 37.2001C75.4262 37.2001 74.2769 36.0582 74.2769 34.834C74.2769 34.2383 74.571 33.3945 75.5414 32.8165C76.5451 32.1977 77.9 32.1079 78.6448 32.0585L78.6744 32.0565L78.6401 32.012C78.4187 31.725 78.1809 31.4169 78.1809 30.9294C78.1809 30.6784 78.2479 30.5182 78.3198 30.3461C78.3282 30.3258 78.3368 30.3054 78.3453 30.2846L78.3338 30.2857C78.1582 30.3025 77.9815 30.3194 77.8207 30.3194C76.0806 30.3194 75.0971 29.0104 75.0971 27.7204C75.0971 26.9595 75.4413 26.1152 76.1482 25.5034C77.0836 24.7268 78.1989 24.5929 79.0852 24.5929H82.4662L81.415 25.1911H80.396ZM78.8558 32.5184C79.0182 32.5184 79.0989 32.5184 79.2335 32.536C80.4782 33.4308 81.0193 33.876 81.0193 34.7197C81.0193 35.7449 80.1831 36.5063 78.6078 36.5063C76.8546 36.5063 75.7213 35.6606 75.7213 34.4878C75.7213 33.3126 76.771 32.917 77.1342 32.7831C77.8207 32.5507 78.707 32.5184 78.8558 32.5184ZM79.7051 29.3923C80.0844 29.0104 80.1174 28.4828 80.1174 28.1833C80.1174 26.9933 79.4139 25.1401 78.0502 25.1401C77.6247 25.1401 77.1638 25.3553 76.9023 25.6882C76.6247 26.0329 76.5415 26.48 76.5415 26.91C76.5415 28.018 77.1823 29.8556 78.5918 29.8556C79.0031 29.8556 79.4455 29.6541 79.7051 29.3923ZM92.9444 30.9769L92.1597 31.7236C92.0993 31.7571 92.0391 31.7924 91.9789 31.8276C91.8583 31.8981 91.7381 31.9684 91.6181 32.0237C91.0731 32.2732 90.5189 32.336 90.0264 32.336C89.5023 32.336 88.6806 32.3017 87.8424 31.6903C86.678 30.8632 86.169 29.4413 86.169 28.2024C86.169 25.6372 88.2396 24.3791 89.9286 24.3791C90.5189 24.3791 91.1251 24.5282 91.6181 24.8425C92.4284 25.3829 92.6449 26.0833 92.7634 26.4668L92.7675 26.48L88.9106 28.0514L87.6475 28.1504C88.0563 30.2537 89.4672 31.477 91.0264 31.477C91.8053 31.477 92.3834 31.2206 92.9138 30.9563C92.9138 30.9563 93.0203 30.9004 92.9444 30.9769ZM91.0935 26.3491C91.0935 26.5795 90.9307 26.6786 90.6176 26.7933L87.6309 28.1004C87.6253 27.9986 87.6177 27.8968 87.6101 27.7957L87.6101 27.7954C87.5956 27.6016 87.5813 27.4105 87.5813 27.2272C87.5813 25.4396 88.8119 24.9248 89.4672 24.9248C90.3521 24.9248 91.0935 25.6882 91.0935 26.3491ZM97.6736 31.0475V35.2615H96.8437V24.5385H97.6736V25.7598C98.2142 24.9704 99.2021 24.3448 100.35 24.3448C102.408 24.3448 103.794 25.9191 103.794 28.4112C103.794 30.8867 102.408 32.4939 100.35 32.4939C99.2663 32.4939 98.2959 31.9305 97.6736 31.0475ZM100.21 25.1004C101.931 25.1004 102.902 26.533 102.902 28.4112C102.902 30.2925 101.931 31.7373 100.21 31.7373C99.1404 31.7373 98.1179 30.8592 97.6736 30.1189V26.6864C98.1179 25.9476 99.1404 25.1004 100.21 25.1004ZM104.927 21.5777H105.756V32.3007H104.927V21.5777ZM112.517 31.5731C112.547 31.7712 112.589 32.0085 112.645 32.2776H113.601C113.527 32.0271 113.471 31.7682 113.436 31.5089C113.402 31.25 113.389 30.9843 113.389 30.7092V26.8801C113.389 26.0603 113.112 25.4333 112.561 24.9994C112.009 24.561 111.277 24.3414 110.372 24.3414C109.464 24.3414 108.727 24.5645 108.164 25.0082C107.598 25.4524 107.332 25.9667 107.363 26.5531L107.38 26.5947H108.23C108.23 26.1599 108.423 25.799 108.806 25.5078C109.192 25.2224 109.7 25.0758 110.326 25.0758C111.01 25.0758 111.538 25.2362 111.914 25.5534C112.289 25.8701 112.477 26.3069 112.477 26.8624V27.8268H110.541C109.504 27.8268 108.666 28.0426 108.017 28.4765C107.369 28.9084 107.043 29.4732 107.043 30.1689C107.043 30.8656 107.268 31.4162 107.714 31.8227C108.162 32.2296 108.79 32.4301 109.598 32.4301C110.27 32.4301 110.759 32.2938 111.275 32.0158C111.789 31.7398 112.193 31.3892 112.477 30.9681C112.477 31.1735 112.492 31.3755 112.517 31.5731ZM109.7 31.6677C110.405 31.6677 110.911 31.5089 111.429 31.1946C111.944 30.8823 112.294 30.4749 112.477 29.9816V28.4912H110.532C109.789 28.4912 109.174 28.6569 108.691 28.9913C108.206 29.3246 107.96 29.7282 107.96 30.1974C107.96 30.6401 108.116 30.9941 108.425 31.2623C108.735 31.5334 109.159 31.6677 109.7 31.6677ZM115.741 34.6972C115.549 34.6972 115.246 34.6482 115.069 34.5682L114.926 35.3404C115.133 35.4047 115.487 35.4527 115.756 35.4527C116.65 35.4527 117.301 34.9835 117.715 34.0079L121.702 24.5385H120.763L117.986 31.3211L115.182 24.5385H114.256L117.525 32.3654L116.92 33.7485C116.602 34.4878 116.249 34.6972 115.741 34.6972Z" fill="black"/>
<path fill-rule="evenodd" clip-rule="evenodd" d="M48.5655 10C47.0267 10 45.7896 11.0712 45.7896 12.7363C45.7896 14.3941 47.0267 15.4801 48.5655 15.4801C49.4777 15.4801 50.2233 15.0917 50.7386 14.5125V12.5377H48.2326V13.3547H49.8185V14.1717C49.5807 14.4015 49.1051 14.6473 48.5655 14.6473C47.5192 14.6473 46.7413 13.8382 46.7413 12.7363C46.7413 11.6181 47.5192 10.8254 48.5655 10.8254C49.1521 10.8254 49.652 11.1341 49.9374 11.5309L50.691 11.0944C50.2704 10.492 49.5966 10 48.5655 10ZM51.886 10.0872V15.3771H55.5102V14.5601H52.8135V13.0851H55.4547V12.2682H52.8135V10.9047H55.5102V10.0872H51.886ZM58.0776 15.3771V10.9047H56.4758V10.0872H60.6074V10.9047H59.0056V15.3771H58.0776ZM64.7597 10.0872H63.8322V15.3771H64.7597V10.0872ZM67.3439 15.3771V10.9047H65.7422V10.0872H69.8737V10.9047H68.2719V15.3771H67.3439ZM75.5733 10C73.9864 10 72.8686 11.1579 72.8686 12.7363C72.8686 14.3143 73.9864 15.4722 75.5733 15.4722C77.1508 15.4722 78.2774 14.3143 78.2774 12.7363C78.2774 11.1579 77.1508 10 75.5733 10ZM77.3257 12.7363C77.3257 11.6419 76.6355 10.8254 75.5733 10.8254C74.5021 10.8254 73.8204 11.6419 73.8204 12.7363C73.8204 13.8224 74.5021 14.6473 75.5733 14.6473C76.6355 14.6473 77.3257 13.8224 77.3257 12.7363ZM80.2884 11.5943L83.0486 15.3771H83.9448V10.0872H83.0169V13.7515L80.3127 10.0872H79.361V15.3771H80.2884V11.5943Z" fill="black"/>
</svg>
