<svg width="21" height="22" viewBox="0 0 21 22" fill="none" xmlns="http://www.w3.org/2000/svg">
<path fill-rule="evenodd" clip-rule="evenodd" d="M0 7.60506V6.29736H2.57143C3.41518 6.30247 4.1635 6.85926 4.4096 7.67657L4.42969 7.73787L4.70591 10.2307H16.8549L15.6244 16.5035C15.4436 17.4127 14.6451 18.0768 13.731 18.0768H5.57478L4.27628 18.0593L3.17411 8.05457C3.08371 7.78895 2.84766 7.60506 2.57143 7.60506H0ZM11.5714 20.6922C11.5714 19.9719 12.149 19.3845 12.8571 19.3845C13.5653 19.3845 14.1429 19.9719 14.1429 20.6922C14.1429 21.4124 13.5653 21.9999 12.8571 21.9999C12.149 21.9999 11.5714 21.4124 11.5714 20.6922ZM6.42857 19.3845C5.72042 19.3845 5.14286 19.9719 5.14286 20.6922C5.14286 21.4124 5.72042 21.9999 6.42857 21.9999C7.13672 21.9999 7.71429 21.4124 7.71429 20.6922C7.71429 19.9719 7.13672 19.3845 6.42857 19.3845ZM15.2879 11.5383H4.85156L5.42913 16.7691H13.731C14.0424 16.7691 14.2985 16.5546 14.3638 16.243L15.2879 11.5383Z" fill="black"/>
<path fill-rule="evenodd" clip-rule="evenodd" d="M18 6C19.6569 6 21 4.65685 21 3C21 1.34315 19.6569 0 18 0C16.3431 0 15 1.34315 15 3C15 4.65685 16.3431 6 18 6Z" fill="#D0CFD0"/>
</svg>
