<svg width="22" height="22" viewBox="0 0 22 22" fill="none" xmlns="http://www.w3.org/2000/svg">
<path fill-rule="evenodd" clip-rule="evenodd" d="M2.75 0C1.24203 0 0 1.24203 0 2.75V19.25C0 20.758 1.24203 22 2.75 22H19.25C20.758 22 22 20.758 22 19.25V2.75C22 1.24203 20.758 0 19.25 0H2.75ZM2.75 1.83333H19.25C19.766 1.83333 20.1667 2.23397 20.1667 2.75V19.25C20.1667 19.766 19.766 20.1667 19.25 20.1667H2.75C2.23397 20.1667 1.83333 19.766 1.83333 19.25V2.75C1.83333 2.23397 2.23397 1.83333 2.75 1.83333ZM11.3796 8.30013C11.3777 6.75646 12.6342 5.5 14.1797 5.5C14.9534 5.5 15.726 5.78904 16.21 6.36654C16.8865 6.26937 17.4644 5.98119 17.9466 5.69336C17.7541 6.36803 17.2691 6.85165 16.6898 7.23665C17.2709 7.13949 17.754 7.04475 18.3333 6.75326C17.9447 7.33442 17.4638 7.81662 16.9798 8.20345V8.59017C16.9798 12.2568 14.1761 16.5 9.05924 16.5C7.10308 16.5 5.72917 16.0424 4.8125 15.2467H5.48926C6.74509 15.2467 8.00181 14.7667 8.96615 14.0902C7.71031 14.0902 6.74621 13.2217 6.35938 12.1602C6.35938 12.1602 6.62277 12.2568 6.84277 12.2568C7.13244 12.2568 7.61621 12.1602 7.61621 12.1602C6.36038 11.8687 5.5 10.8079 5.5 9.45671L5.50323 9.45831C5.88822 9.6499 6.13751 9.77395 6.64941 9.84342C5.87575 9.16692 5.5 8.39435 5.5 7.43001C5.5 6.94785 5.59705 6.46691 5.88672 6.08008C7.23789 7.72091 9.16249 8.87614 11.4798 8.97331C11.4798 8.8867 11.4595 8.80003 11.4372 8.70467C11.4099 8.58807 11.3796 8.45847 11.3796 8.30013Z" fill="#FEFEFE"/>
</svg>
