<svg width="23" height="23" viewBox="0 0 23 23" fill="none" xmlns="http://www.w3.org/2000/svg">
<path fill-rule="evenodd" clip-rule="evenodd" d="M3.10998 0C1.40295 0 0 1.40295 0 3.10998V19.8969C0 21.5971 1.40295 23 3.10998 23H19.8969C21.5971 23 23 21.5971 23 19.8969V3.10998C23 1.40295 21.5971 0 19.8969 0H3.10998ZM3.10998 1.76923H19.8969C20.6433 1.76923 21.2308 2.35667 21.2308 3.10998V19.8969C21.2308 20.6433 20.6433 21.2308 19.8969 21.2308H3.10998C2.35667 21.2308 1.76923 20.6433 1.76923 19.8969V3.10998C1.76923 2.35667 2.35667 1.76923 3.10998 1.76923ZM3.53846 5.30769C3.53846 4.33323 4.33323 3.53846 5.30769 3.53846C6.28215 3.53846 7.07692 4.33323 7.07692 5.30769C7.07692 6.28215 6.28215 7.07692 5.30769 7.07692C4.33323 7.07692 3.53846 6.28215 3.53846 5.30769ZM3.53846 8.84615V19.4615H7.07692V8.84615H3.53846ZM8.84615 19.4615V8.84615H12.3846V10.3942H12.4261C12.8822 9.50962 13.7184 8.84615 15.3771 8.84615C18.8257 8.84615 19.4615 11.1821 19.4615 14.223V19.4615H15.9231V14.8173C15.9231 14.7443 15.9234 14.6703 15.9238 14.5959C15.9297 13.339 15.9363 11.9285 14.2921 11.9285C12.5228 11.9285 12.3846 13.2485 12.3846 14.7206V19.4615H8.84615Z" fill="#FEFEFE"/>
</svg>
