<svg width="23" height="23" viewBox="0 0 23 23" fill="none" xmlns="http://www.w3.org/2000/svg">
<path fill-rule="evenodd" clip-rule="evenodd" d="M0 4.42308C0 1.99041 1.99041 0 4.42308 0H18.5769C21.0096 0 23 1.99041 23 4.42308V18.5769C23 21.0096 21.0096 23 18.5769 23H4.42308C1.99041 23 0 21.0096 0 18.5769V4.42308ZM18.5769 1.76923H4.42308C2.94574 1.76923 1.76923 2.94574 1.76923 4.42308V18.5769C1.76923 20.0543 2.94574 21.2308 4.42308 21.2308H12.7924V14.0951L10.6154 14.0882V11.2408L12.7924 11.2477V9.15024C12.7924 6.71578 14.2891 5.39062 16.4794 5.39062C17.5286 5.39062 18.4308 5.46582 18.6944 5.5012V8.04793H17.174C15.9833 8.04793 15.7538 8.60913 15.7538 9.43359V11.2477H18.5942L18.2245 14.0951H15.7538V21.2308H18.5769C20.0543 21.2308 21.2308 20.0543 21.2308 18.5769V4.42308C21.2308 2.94574 20.0543 1.76923 18.5769 1.76923Z" fill="#FEFEFE"/>
</svg>
