<svg width="23" height="23" viewBox="0 0 23 23" fill="none" xmlns="http://www.w3.org/2000/svg">
<path fill-rule="evenodd" clip-rule="evenodd" d="M6.67608 0C2.9994 0 0 2.9994 0 6.67608V16.3308C0 20.0006 2.9994 23 6.67608 23H16.3308C20.0006 23 23 20.0006 23 16.3239V6.67608C23 2.9994 20.0006 0 16.3239 0H6.67608ZM6.67608 1.76923H16.3239C19.0469 1.76923 21.2308 3.95312 21.2308 6.67608V16.3239C21.2308 19.0469 19.0469 21.2308 16.3308 21.2308H6.67608C3.95312 21.2308 1.76923 19.0469 1.76923 16.3308V6.67608C1.76923 3.95312 3.95312 1.76923 6.67608 1.76923ZM17.6923 4.42308C17.6923 3.93239 18.0862 3.53846 18.5769 3.53846C19.0676 3.53846 19.4615 3.93239 19.4615 4.42308C19.4615 4.91376 19.0676 5.30769 18.5769 5.30769C18.0862 5.30769 17.6923 4.91376 17.6923 4.42308ZM11.5 5.30769C8.09285 5.30769 5.30769 8.09285 5.30769 11.5C5.30769 14.9072 8.09285 17.6923 11.5 17.6923C14.9072 17.6923 17.6923 14.9072 17.6923 11.5C17.6923 8.09285 14.9072 5.30769 11.5 5.30769ZM15.9231 11.5C15.9231 9.04657 13.9534 7.07692 11.5 7.07692C9.04657 7.07692 7.07692 9.04657 7.07692 11.5C7.07692 13.9534 9.04657 15.9231 11.5 15.9231C13.9534 15.9231 15.9231 13.9534 15.9231 11.5Z" fill="#FEFEFE"/>
</svg>
