<svg width="38" height="23" viewBox="0 0 38 23" fill="none" xmlns="http://www.w3.org/2000/svg">
<path d="M11.4463 0C17.768 0 22.8927 5.11991 22.8927 11.4356C22.8927 17.7514 17.768 22.8713 11.4463 22.8713C5.1247 22.8713 0 17.7514 0 11.4356C0 5.11991 5.1247 0 11.4463 0ZM11.4463 5.58328C8.19416 5.58328 5.55776 8.23359 5.55776 11.5029C5.55776 14.7722 8.19416 17.4225 11.4463 17.4225C14.6985 17.4225 17.3349 14.7722 17.3349 11.5029C17.3349 8.23359 14.6985 5.58328 11.4463 5.58328ZM31.5761 6.30932C34.6279 6.30932 37.1019 8.781 37.1019 11.83C37.1019 14.8789 34.6279 17.3506 31.5761 17.3506C28.5243 17.3506 26.0503 14.8789 26.0503 11.83C26.0503 8.781 28.5243 6.30932 31.5761 6.30932Z" fill="black"/>
</svg>
