<svg width="24" height="23" viewBox="0 0 24 23" fill="none" xmlns="http://www.w3.org/2000/svg">
<path fill-rule="evenodd" clip-rule="evenodd" d="M10.2857 0C4.61384 0 0 4.69795 0 10.4732C0 16.2485 4.61384 20.9464 10.2857 20.9464C13.8616 20.9464 17.0156 19.0782 18.8571 16.2553V18.3281C18.8571 20.7214 20.7924 22.692 23.1429 22.692H24V20.9464H23.1429C21.7232 20.9464 20.5714 19.7736 20.5714 18.3281V10.4732C20.5714 4.69795 15.9576 0 10.2857 0ZM10.2857 1.74554C15.0268 1.74554 18.8571 5.64572 18.8571 10.4732C18.8571 15.3007 15.0268 19.2009 10.2857 19.2009C5.54464 19.2009 1.71429 15.3007 1.71429 10.4732C1.71429 5.64572 5.54464 1.74554 10.2857 1.74554ZM5.4375 5.53662C6.08036 4.88204 6.82366 4.39111 7.60714 4.05019L8.32366 6.61394C7.94197 6.81168 7.57366 7.06396 7.25893 7.39125C6.9375 7.71172 6.68973 8.08674 6.49554 8.47539L3.97768 7.74581C4.3125 6.94805 4.79464 6.1912 5.4375 5.53662ZM12.9643 4.05019L12.2478 6.61394C12.6295 6.8185 12.9978 7.06396 13.3125 7.39125C13.6339 7.71172 13.8817 8.08674 14.0759 8.47539L16.5938 7.74581C16.2589 6.94805 15.7768 6.1912 15.1339 5.53662C14.4911 4.88204 13.7478 4.39111 12.9643 4.05019ZM8.57143 10.4732C8.57143 9.51181 9.34152 8.72768 10.2857 8.72768C11.2299 8.72768 12 9.51181 12 10.4732C12 11.4346 11.2299 12.2188 10.2857 12.2188C9.34152 12.2188 8.57143 11.4346 8.57143 10.4732ZM6.49554 12.471L3.97768 13.2006C4.3125 13.9984 4.79464 14.7552 5.4375 15.4098C6.08036 16.0644 6.82366 16.5553 7.61384 16.8962L8.32366 14.3325C7.94197 14.1279 7.57366 13.8825 7.25893 13.5552C6.9375 13.2347 6.69643 12.8597 6.49554 12.471ZM13.3125 13.5552C13.6339 13.2347 13.875 12.8597 14.0759 12.471L16.5938 13.2006C16.2589 13.9984 15.7768 14.7552 15.1339 15.4098C14.4911 16.0644 13.7478 16.5553 12.9643 16.8962L12.2478 14.3325C12.6295 14.1347 12.9978 13.8825 13.3125 13.5552Z" fill="black"/>
</svg>
