<svg width="58" height="36" viewBox="0 0 58 36" fill="none" xmlns="http://www.w3.org/2000/svg">
<mask id="mask0" mask-type="alpha" maskUnits="userSpaceOnUse" x="0" y="0" width="58" height="36">
<path d="M17.8936 0.117676C27.776 0.117676 35.7872 8.12143 35.7872 17.9946C35.7872 27.8677 27.776 35.8715 17.8936 35.8715C8.01124 35.8715 0 27.8677 0 17.9946C0 8.12143 8.01124 0.117676 17.8936 0.117676ZM17.8936 8.8458C12.8096 8.8458 8.68823 12.9889 8.68823 18.0997C8.68823 23.2105 12.8096 27.3536 17.8936 27.3536C22.9776 27.3536 27.099 23.2105 27.099 18.0997C27.099 12.9889 22.9776 8.8458 17.8936 8.8458ZM49.3617 9.98079C54.1325 9.98079 58 13.8447 58 18.611C58 23.3773 54.1325 27.2412 49.3617 27.2412C44.5909 27.2412 40.7234 23.3773 40.7234 18.611C40.7234 13.8447 44.5909 9.98079 49.3617 9.98079Z" fill="white"/>
</mask>
<g mask="url(#mask0)">
<path d="M17.8936 0.117676C27.776 0.117676 35.7872 8.12143 35.7872 17.9946C35.7872 27.8677 27.776 35.8715 17.8936 35.8715C8.01124 35.8715 0 27.8677 0 17.9946C0 8.12143 8.01124 0.117676 17.8936 0.117676ZM17.8936 8.8458C12.8096 8.8458 8.68823 12.9889 8.68823 18.0997C8.68823 23.2105 12.8096 27.3536 17.8936 27.3536C22.9776 27.3536 27.099 23.2105 27.099 18.0997C27.099 12.9889 22.9776 8.8458 17.8936 8.8458ZM49.3617 9.98079C54.1325 9.98079 58 13.8447 58 18.611C58 23.3773 54.1325 27.2412 49.3617 27.2412C44.5909 27.2412 40.7234 23.3773 40.7234 18.611C40.7234 13.8447 44.5909 9.98079 49.3617 9.98079Z" fill="white"/>
</g>
</svg>
