<svg width="20" height="22" viewBox="0 0 20 22" fill="none" xmlns="http://www.w3.org/2000/svg">
<path fill-rule="evenodd" clip-rule="evenodd" d="M17.1662 0.0572917C17.3438 0.0214848 17.5213 0 17.6989 0C18.2386 0 18.75 0.179036 19.1548 0.501303C19.6875 0.938151 20 1.63281 20 2.37044V16.5C20 18.5124 18.3594 20.1667 16.3636 20.1667C14.3679 20.1667 12.7273 18.5124 12.7273 16.5C12.7273 14.4876 14.3679 12.8333 16.3636 12.8333C17.0312 12.8333 17.642 13.0339 18.1818 13.349V5.71484L7.27273 8.07812V18.3333C7.27273 20.3457 5.6321 22 3.63636 22C1.64063 22 0 20.3457 0 18.3333C0 16.321 1.64063 14.6667 3.63636 14.6667C4.30398 14.6667 4.91477 14.8672 5.45455 15.1823V4.8125C5.45455 3.52344 6.35653 2.39193 7.61364 2.11979L17.1662 0.0572917ZM18.0114 1.93359C17.9616 1.89062 17.9119 1.86198 17.8338 1.84766C17.7557 1.82617 17.6634 1.82617 17.5497 1.84766L7.99006 3.91732C7.56392 4.01042 7.27273 4.37565 7.27273 4.8125V6.20182L18.1818 3.83854V2.37044C18.1818 2.12695 18.1037 2.00521 18.0114 1.93359ZM16.3636 14.6667C17.3793 14.6667 18.1818 15.4759 18.1818 16.5C18.1818 17.5241 17.3793 18.3333 16.3636 18.3333C15.348 18.3333 14.5455 17.5241 14.5455 16.5C14.5455 15.4759 15.348 14.6667 16.3636 14.6667ZM5.45455 18.3333C5.45455 17.3092 4.65199 16.5 3.63636 16.5C2.62074 16.5 1.81818 17.3092 1.81818 18.3333C1.81818 19.3574 2.62074 20.1667 3.63636 20.1667C4.65199 20.1667 5.45455 19.3574 5.45455 18.3333Z" fill="black"/>
</svg>
