<svg width="18" height="18" viewBox="0 0 18 18" fill="none" xmlns="http://www.w3.org/2000/svg">
<path fill-rule="evenodd" clip-rule="evenodd" d="M13.3998 12.4L16.8998 15.9C17.1998 16.2 17.1998 16.7001 16.9998 17C16.8998 17.1 16.6998 17.2 16.4998 17.2C16.2998 17.2 16.0998 17.1 15.9998 17L12.4998 13.5C11.0998 14.6 9.4998 15.2 7.7998 15.2C5.8998 15.2 3.9998 14.4 2.5998 13C-0.300195 10.1 -0.300195 5.50005 2.5998 2.60005C3.8998 1.20005 5.6998 0.300049 7.6998 0.300049C9.6998 0.300049 11.4998 1.10005 12.8998 2.50005C15.5998 5.20005 15.7998 9.50005 13.3998 12.4ZM3.5998 3.60005C1.2998 5.90005 1.2998 9.60005 3.5998 11.9C5.8998 14.2 9.5998 14.2 11.7998 11.9C14.0998 9.60005 14.0998 5.90005 11.7998 3.60005C10.6998 2.50005 9.1998 1.90005 7.6998 1.90005C6.1998 1.90005 4.6998 2.50005 3.5998 3.60005Z" fill="black"/>
</svg>
