<svg width="24" height="19" viewBox="0 0 24 19" fill="none" xmlns="http://www.w3.org/2000/svg">
<path fill-rule="evenodd" clip-rule="evenodd" d="M12 0C8.50447 0 5.41071 0.364347 3.52902 0.647727C1.98884 0.877132 0.763394 2.09162 0.482143 3.65021C0.241071 5.01314 0 7.00355 0 9.5C0 11.9964 0.241071 13.9869 0.482143 15.3498C0.763394 16.9084 1.98884 18.1161 3.52902 18.3523C5.41741 18.6357 8.52455 19 12 19C15.4754 19 18.5759 18.6357 20.4643 18.3523H20.471C22.0112 18.1229 23.2366 16.9084 23.5179 15.3498C23.7589 13.9801 24 11.9897 24 9.5C24 7.00355 23.7589 5.01314 23.5112 3.65021C23.2366 2.09162 22.0112 0.877132 20.471 0.647727C18.5893 0.364347 15.4955 0 12 0ZM12 1.72727C15.375 1.72727 18.3951 2.07812 20.2165 2.35476C21.0201 2.47621 21.6696 3.11044 21.8237 3.95384C22.0513 5.22905 22.2857 7.11825 22.2857 9.5C22.2857 11.8817 22.0513 13.771 21.8304 15.0394C21.6763 15.8896 21.0268 16.5238 20.2165 16.6452C18.3817 16.9151 15.3549 17.2727 12 17.2727C8.64509 17.2727 5.61161 16.9151 3.78348 16.6452C2.97991 16.5238 2.32366 15.8896 2.16964 15.0394C1.94866 13.7642 1.71429 11.8817 1.71429 9.5C1.71429 7.11151 1.94866 5.22905 2.16964 3.95384C2.32366 3.11044 2.97321 2.47621 3.77679 2.36151H3.78348C5.60491 2.08487 8.625 1.72727 12 1.72727ZM17.1429 9.5L8.57143 13.8182V5.18182L17.1429 9.5Z" fill="#FEFEFE"/>
</svg>
